<svg width="15.000000" height="14.999023" viewBox="0 0 15 14.999" fill="none" xmlns="http://www.w3.org/2000/svg" xmlns:xlink="http://www.w3.org/1999/xlink">
	<desc>
			Created with Pixso.
	</desc>
	<defs/>
	<path id="Vector" d="M14.6055 11.571L11.5703 9.54639C11.1855 9.2915 10.668 9.37549 10.3828 9.73926L9.5 10.8762C9.38477 11.0261 9.17969 11.0696 9.01562 10.9783L8.8457 10.8855C8.28906 10.5815 7.5957 10.2031 6.19727 8.80469C4.79883 7.40601 4.41992 6.71167 4.11523 6.15503L4.02344 5.98682C3.93164 5.82227 3.97266 5.61499 4.12305 5.50024L5.25977 4.61621C5.62305 4.3313 5.70703 3.81494 5.45312 3.42969L3.42773 0.393555C3.16797 0.0012207 2.64453 -0.116699 2.24023 0.126221L0.970703 0.888672C0.570312 1.12329 0.279297 1.50317 0.154297 1.94849C-0.302734 3.61426 0.0410156 6.48926 4.27539 10.7246C7.64453 14.093 10.1523 14.9988 11.875 14.9988C12.2715 15.0005 12.668 14.949 13.0508 14.8455C13.4961 14.7205 13.875 14.4277 14.1094 14.0288L14.873 12.76C15.1172 12.356 15 11.8323 14.6055 11.571ZM14.4434 12.5034L13.6816 13.7732C13.5137 14.061 13.2402 14.2729 12.918 14.364C11.3809 14.7861 8.69531 14.4365 4.62891 10.3708C0.5625 6.30518 0.212891 3.6189 0.634766 2.08081C0.726562 1.75952 0.939453 1.48608 1.22656 1.31738L2.49609 0.555908C2.67188 0.450439 2.89844 0.501465 3.01172 0.671875L4.11328 2.323L5.03516 3.70752C5.14648 3.87476 5.10938 4.09888 4.95117 4.22241L3.81641 5.10669C3.46875 5.37109 3.37109 5.84961 3.58398 6.22949L3.67383 6.39331C3.99414 6.97925 4.39062 7.70825 5.83984 9.15796C7.29102 10.6079 8.01953 11.0049 8.60547 11.3245L8.76953 11.415C9.14844 11.6279 9.62695 11.5291 9.89258 11.1831L10.7754 10.0466C10.9004 9.88892 11.123 9.85278 11.291 9.96313L14.3262 11.9878C14.498 12.1011 14.5488 12.3284 14.4434 12.5034Z" fill="#999999" fill-opacity="1.000000" fill-rule="nonzero"/>
	<path id="Vector" d="M8.5 2.50098C10.8457 2.50342 12.7461 4.40454 12.75 6.75024C12.75 6.88843 12.8613 7.00024 13 7.00024C13.1367 7.00024 13.25 6.88843 13.25 6.75024C13.2461 4.12842 11.1211 2.00391 8.5 2.00098C8.36133 2.00098 8.25 2.11279 8.25 2.25098C8.25 2.38892 8.36133 2.50098 8.5 2.50098Z" fill="#999999" fill-opacity="1.000000" fill-rule="nonzero"/>
	<path id="Vector" d="M8.5 4.00049C10.0176 4.0022 11.248 5.23218 11.25 6.75C11.25 6.88794 11.3613 7 11.5 7C11.6367 7 11.75 6.88794 11.75 6.75C11.748 4.9563 10.293 3.50244 8.5 3.50049C8.36133 3.50049 8.25 3.6123 8.25 3.75049C8.25 3.88843 8.36133 4.00049 8.5 4.00049Z" fill="#999999" fill-opacity="1.000000" fill-rule="nonzero"/>
	<path id="Vector" d="M8.5 5.50049C9.18945 5.50122 9.74805 6.0603 9.75 6.75024C9.75 6.88818 9.86133 7.00024 10 7.00024C10.1387 7.00024 10.25 6.88818 10.25 6.75024C10.248 5.78442 9.4668 5.00146 8.5 5.00049C8.36133 5.00049 8.25 5.1123 8.25 5.25049C8.25 5.38843 8.36133 5.50049 8.5 5.50049Z" fill="#999999" fill-opacity="1.000000" fill-rule="nonzero"/>
</svg>
