<svg width="15.000000" height="11.415283" viewBox="0 0 15 11.4153" fill="none" xmlns="http://www.w3.org/2000/svg" xmlns:xlink="http://www.w3.org/1999/xlink">
	<desc>
			Created with Pixso.
	</desc>
	<defs/>
	<path id="Vector" d="M13.168 0L1.83398 0C0.822266 0 0 0.82251 0 1.83423L0 9.58105C0 10.5928 0.822266 11.4153 1.83398 11.4153L13.166 11.4153C14.1777 11.4153 15 10.5928 15 9.58105L15 1.8374C15.0039 0.825684 14.1797 0 13.168 0ZM14.166 9.58105C14.166 10.1304 13.7188 10.5774 13.168 10.5774L1.83398 10.5774C1.28516 10.5774 0.837891 10.1304 0.837891 9.58105L0.837891 1.8374C0.837891 1.28809 1.28516 0.841064 1.83398 0.841064L13.166 0.841064C13.7148 0.841064 14.1621 1.28809 14.1621 1.8374L14.1621 9.58105L14.166 9.58105Z" fill="#999999" fill-opacity="1.000000" fill-rule="nonzero"/>
	<path id="Vector" d="M9.46094 5.61133L13.1289 2.32129C13.2988 2.16626 13.3145 1.90234 13.1602 1.72852C13.0039 1.55786 12.7402 1.54224 12.5664 1.69751L7.50781 6.23828L6.52148 5.35669C6.51758 5.35352 6.51562 5.35059 6.51562 5.34741C6.49219 5.32568 6.4707 5.30713 6.44727 5.28833L2.42969 1.69434C2.25586 1.53931 1.99219 1.55469 1.83789 1.72852C1.68164 1.90234 1.69727 2.16626 1.87109 2.32129L5.58398 5.63916L1.88672 9.09985C1.71875 9.25806 1.71094 9.52173 1.86914 9.69263C1.95312 9.77954 2.06445 9.82593 2.17578 9.82593C2.27734 9.82593 2.38086 9.78882 2.46094 9.71436L6.21289 6.2041L7.23242 7.11328C7.3125 7.18481 7.41211 7.21899 7.51172 7.21899C7.60938 7.21899 7.71289 7.18164 7.79102 7.11035L8.83594 6.1731L12.5664 9.71729C12.6484 9.79492 12.7539 9.83228 12.8555 9.83228C12.9668 9.83228 13.0762 9.78882 13.1602 9.7019C13.3184 9.53418 13.3125 9.26733 13.1445 9.10913L9.46094 5.61133Z" fill="#999999" fill-opacity="1.000000" fill-rule="nonzero"/>
</svg>
