<svg width="15.000000" height="15.000000" viewBox="0 0 15 15" fill="none" xmlns="http://www.w3.org/2000/svg" xmlns:xlink="http://www.w3.org/1999/xlink">
	<desc>
			Created with Pixso.
	</desc>
	<defs>
		<clipPath id="clip6_206">
			<rect id="placeholder" width="15.000000" height="15.000000" fill="white" fill-opacity="0"/>
		</clipPath>
	</defs>
	<rect id="placeholder" width="15.000000" height="15.000000" fill="#FFFFFF" fill-opacity="0"/>
	<g clip-path="url(#clip6_206)">
		<path id="Vector" d="M7.49023 0C4.45898 0 1.99219 2.46606 1.99219 5.49731C1.99219 6.88989 2.86914 8.85742 4.59961 11.3452C5.86523 13.1638 7.10938 14.571 7.16211 14.6301L7.49023 15L7.81836 14.6301C7.86914 14.571 9.11328 13.1638 10.3789 11.3452C12.1094 8.85742 12.9863 6.88989 12.9863 5.49731C12.9863 2.46606 10.5215 0 7.49023 0ZM9.66406 10.8374C8.80859 12.0674 7.94531 13.126 7.49023 13.666C7.03516 13.1274 6.17383 12.0728 5.32031 10.8445C3.7168 8.53931 2.86914 6.69043 2.86914 5.49731C2.86914 2.94971 4.94141 0.876953 7.49023 0.876953C10.0371 0.876953 12.1094 2.94971 12.1094 5.49731C12.1094 6.68896 11.2637 8.53564 9.66406 10.8374Z" fill="#999999" fill-opacity="1.000000" fill-rule="nonzero"/>
		<path id="Vector" d="M7.48828 2.03174C5.69922 2.03174 4.24414 3.4873 4.24414 5.27637C4.24414 7.06543 5.69922 8.521 7.48828 8.521C9.27734 8.521 10.7324 7.06543 10.7324 5.27637C10.7324 3.4873 9.27734 2.03174 7.48828 2.03174ZM7.48828 7.64404C6.18359 7.64404 5.12109 6.58179 5.12109 5.27637C5.12109 3.9707 6.18359 2.90869 7.48828 2.90869C8.79492 2.90869 9.85547 3.9707 9.85547 5.27637C9.85547 6.58179 8.79492 7.64404 7.48828 7.64404Z" fill="#999999" fill-opacity="1.000000" fill-rule="nonzero"/>
	</g>
</svg>
