<svg width="110" height="110" viewBox="0 0 110 110" fill="none" xmlns="http://www.w3.org/2000/svg">
<circle cx="55" cy="55" r="54.5" stroke="#93FA03"/>
<circle cx="55" cy="55" r="44.5" stroke="#4985FF"/>
<g clip-path="url(#clip0_47_19)">
<path d="M74.3336 35H44.3336C43.9655 35 43.667 35.2985 43.667 35.6667V45.6666H45.0003V36.3333H73.6669V72.9999C73.6733 73.3505 73.4028 73.6442 73.0529 73.6666C72.9956 73.6666 72.9383 73.6619 72.8809 73.6606C72.7629 73.6573 72.6449 73.6546 72.5289 73.6426C72.5189 73.6426 72.5096 73.6426 72.4996 73.6386C70.3223 73.4006 68.6023 71.6823 68.3623 69.5053C68.3623 69.4959 68.3589 69.4859 68.3576 69.4766C68.3414 69.3182 68.3334 69.1591 68.3336 68.9999V67.6666C68.3336 67.2984 68.0351 66.9999 67.6669 66.9999H45.0003V55H43.667V66.9999H38.3337C37.9655 66.9999 37.667 67.2984 37.667 67.6666V68.9999C37.6707 72.3121 40.3548 74.9962 43.667 74.9999H73.0669C74.1488 74.9716 75.0086 74.0821 75.0003 72.9999V35.6667C75.0003 35.2985 74.7018 35 74.3336 35ZM43.667 73.6666C41.0909 73.6637 39.0032 71.576 39.0003 68.9999V68.3333H67.0003V68.9999C67.0012 69.2198 67.0139 69.4394 67.0383 69.6579C67.0443 69.7159 67.0556 69.7719 67.0636 69.8293C67.0856 69.9906 67.1123 70.1513 67.1476 70.3093C67.1596 70.3646 67.1749 70.4193 67.1889 70.4746C67.2296 70.6353 67.2756 70.7933 67.3289 70.9493C67.3443 70.9939 67.3603 71.0379 67.3769 71.0826C67.4376 71.2479 67.5063 71.4093 67.5816 71.5686C67.5976 71.6013 67.6123 71.6353 67.6283 71.6653C67.7119 71.8342 67.8036 71.9983 67.9036 72.1579C67.9169 72.1793 67.9289 72.2013 67.9423 72.2246C68.0509 72.3948 68.1683 72.5595 68.2936 72.7179L68.3149 72.7466C68.4604 72.9293 68.6163 73.1036 68.7816 73.2686C68.9252 73.4108 69.074 73.5442 69.2283 73.6686L43.667 73.6666Z" fill="#4985FF"/>
<path d="M57 53.6667C57.1768 53.6667 57.3463 53.5963 57.4713 53.4713L60.1379 50.8047C60.3982 50.5443 60.3982 50.1223 60.1379 49.862L57.4713 47.1953C57.3463 47.0703 57.1768 47 57 47H38.3333C36.4924 47 35 48.4924 35 50.3333C35 52.1742 36.4924 53.6667 38.3333 53.6667H57ZM56.828 48.4373L58.7239 50.3333L56.828 52.2293L56.354 50.3333L56.828 48.4373ZM40.3333 48.3333H55.48L55.1466 49.6667H41.6667V51H55.1466L55.48 52.3333H40.3333V48.3333ZM36.3333 50.3333C36.3333 49.2287 37.2287 48.3333 38.3333 48.3333H39V52.3333H38.3333C37.2287 52.3333 36.3333 51.4379 36.3333 50.3333Z" fill="#4985FF"/>
<path d="M50.3335 63.669H70.3335C70.7017 63.669 71.0001 63.3706 71.0001 63.0024V43.0024C71.0001 42.6343 70.7016 42.3359 70.3333 42.3359C70.1566 42.3359 69.9872 42.4062 69.8622 42.5311L49.8622 62.5311C49.6019 62.7915 49.6019 63.2135 49.8624 63.4739C49.9874 63.5988 50.1568 63.669 50.3335 63.669ZM69.6668 44.6118V46.3358H68.3335V47.6691H69.6668V49.0024H68.3335V50.3358H69.6668V51.6691H68.3335V53.0024H69.6668V54.3357H68.3335V55.6691H69.6668V57.0024H68.3335V58.3357H69.6668V59.6691H68.3335V61.0024H69.6668V62.3357H68.3335V61.0024H67.0002V62.3357H65.6668V61.0024H64.3335V62.3357H63.0002V61.0024H61.6668V62.3357H60.3335V61.0024H59.0002V62.3357H57.6668V61.0024H56.3335V62.3357H55.0002V61.0024H53.6668V62.3357H51.9429L69.6668 44.6118Z" fill="#4985FF"/>
<path d="M59.9898 59.6687H66.3331C66.7013 59.6687 66.9998 59.3702 66.9998 59.002V52.6587C66.9997 52.2905 66.7012 51.9921 66.3329 51.9922C66.1562 51.9922 65.9868 52.0624 65.8618 52.1874L59.5184 58.5307C59.2581 58.7911 59.2582 59.2132 59.5186 59.4735C59.6436 59.5984 59.813 59.6687 59.9898 59.6687ZM65.6664 54.2687V58.3353H61.5998L65.6664 54.2687Z" fill="#4985FF"/>
<path d="M65.6663 39H52.333V40.3333H65.6663V39Z" fill="#4985FF"/>
<path d="M67.6663 41.6641H50.333V42.9974H67.6663V41.6641Z" fill="#4985FF"/>
<path d="M50.333 55.6641H46.333V56.9974H50.333V55.6641Z" fill="#4985FF"/>
<path d="M48.9997 58.3359H46.333V59.6693H48.9997V58.3359Z" fill="#4985FF"/>
</g>
<defs>
<clipPath id="clip0_47_19">
<rect width="40" height="40" fill="white" transform="translate(35 35)"/>
</clipPath>
</defs>
</svg>
